<?xml version="1.0" encoding="UTF-8" standalone="no"?>
<!DOCTYPE svg PUBLIC "-//W3C//DTD SVG 1.1//EN"
 "http://www.w3.org/Graphics/SVG/1.1/DTD/svg11.dtd">
<!-- Generated by graphviz version 2.49.3 (20211023.0002)
 -->
<!-- Title: snakemake_dag Pages: 1 -->
<svg width="330pt" height="188pt"
 viewBox="0.00 0.00 329.50 188.00" xmlns="http://www.w3.org/2000/svg" xmlns:xlink="http://www.w3.org/1999/xlink">
<g id="graph0" class="graph" transform="scale(1 1) rotate(0) translate(4 184)">
<title>snakemake_dag</title>
<polygon fill="white" stroke="transparent" points="-4,4 -4,-184 325.5,-184 325.5,4 -4,4"/>
<!-- 0 -->
<g id="node1" class="node">
<title>0</title>
<path fill="none" stroke="#56c1d8" stroke-width="2" stroke-dasharray="5,2" d="M113,-36C113,-36 12,-36 12,-36 6,-36 0,-30 0,-24 0,-24 0,-12 0,-12 0,-6 6,0 12,0 12,0 113,0 113,0 119,0 125,-6 125,-12 125,-12 125,-24 125,-24 125,-30 119,-36 113,-36"/>
<text text-anchor="middle" x="62.5" y="-15.5" font-family="sans" font-size="10.00">make_phylogenetic_tree</text>
</g>
<!-- 1 -->
<g id="node2" class="node">
<title>1</title>
<path fill="none" stroke="#56d88a" stroke-width="2" stroke-dasharray="5,2" d="M181,-108C181,-108 68,-108 68,-108 62,-108 56,-102 56,-96 56,-96 56,-84 56,-84 56,-78 62,-72 68,-72 68,-72 181,-72 181,-72 187,-72 193,-78 193,-84 193,-84 193,-96 193,-96 193,-102 187,-108 181,-108"/>
<text text-anchor="middle" x="124.5" y="-87.5" font-family="sans" font-size="10.00">perform_muscle_alignment</text>
</g>
<!-- 1&#45;&gt;0 -->
<g id="edge1" class="edge">
<title>1&#45;&gt;0</title>
<path fill="none" stroke="grey" stroke-width="2" d="M109.17,-71.7C101.74,-63.3 92.68,-53.07 84.52,-43.86"/>
<polygon fill="grey" stroke="grey" stroke-width="2" points="86.9,-41.27 77.65,-36.1 81.66,-45.91 86.9,-41.27"/>
</g>
<!-- 3 -->
<g id="node4" class="node">
<title>3</title>
<path fill="none" stroke="#d85656" stroke-width="2" stroke-dasharray="5,2" d="M218,-36C218,-36 155,-36 155,-36 149,-36 143,-30 143,-24 143,-24 143,-12 143,-12 143,-6 149,0 155,0 155,0 218,0 218,0 224,0 230,-6 230,-12 230,-12 230,-24 230,-24 230,-30 224,-36 218,-36"/>
<text text-anchor="middle" x="186.5" y="-15.5" font-family="sans" font-size="10.00">make_seq_logo</text>
</g>
<!-- 1&#45;&gt;3 -->
<g id="edge3" class="edge">
<title>1&#45;&gt;3</title>
<path fill="none" stroke="grey" stroke-width="2" d="M139.83,-71.7C147.26,-63.3 156.32,-53.07 164.48,-43.86"/>
<polygon fill="grey" stroke="grey" stroke-width="2" points="167.34,-45.91 171.35,-36.1 162.1,-41.27 167.34,-45.91"/>
</g>
<!-- 2 -->
<g id="node3" class="node">
<title>2</title>
<path fill="none" stroke="#88d856" stroke-width="2" stroke-dasharray="5,2" d="M229.5,-180C229.5,-180 161.5,-180 161.5,-180 155.5,-180 149.5,-174 149.5,-168 149.5,-168 149.5,-156 149.5,-156 149.5,-150 155.5,-144 161.5,-144 161.5,-144 229.5,-144 229.5,-144 235.5,-144 241.5,-150 241.5,-156 241.5,-156 241.5,-168 241.5,-168 241.5,-174 235.5,-180 229.5,-180"/>
<text text-anchor="middle" x="195.5" y="-159.5" font-family="sans" font-size="10.00">clean_ncbi_fasta</text>
</g>
<!-- 2&#45;&gt;1 -->
<g id="edge2" class="edge">
<title>2&#45;&gt;1</title>
<path fill="none" stroke="grey" stroke-width="2" d="M177.95,-143.7C169.27,-135.14 158.64,-124.66 149.15,-115.3"/>
<polygon fill="grey" stroke="grey" stroke-width="2" points="151.43,-112.63 141.85,-108.1 146.51,-117.62 151.43,-112.63"/>
</g>
<!-- 4 -->
<g id="node5" class="node">
<title>4</title>
<path fill="none" stroke="#d8bc56" stroke-width="2" stroke-dasharray="5,2" d="M309.5,-108C309.5,-108 223.5,-108 223.5,-108 217.5,-108 211.5,-102 211.5,-96 211.5,-96 211.5,-84 211.5,-84 211.5,-78 217.5,-72 223.5,-72 223.5,-72 309.5,-72 309.5,-72 315.5,-72 321.5,-78 321.5,-84 321.5,-84 321.5,-96 321.5,-96 321.5,-102 315.5,-108 309.5,-108"/>
<text text-anchor="middle" x="266.5" y="-87.5" font-family="sans" font-size="10.00">calculate_gc_content</text>
</g>
<!-- 2&#45;&gt;4 -->
<g id="edge4" class="edge">
<title>2&#45;&gt;4</title>
<path fill="none" stroke="grey" stroke-width="2" d="M213.05,-143.7C221.73,-135.14 232.36,-124.66 241.85,-115.3"/>
<polygon fill="grey" stroke="grey" stroke-width="2" points="244.49,-117.62 249.15,-108.1 239.57,-112.63 244.49,-117.62"/>
</g>
</g>
</svg>
